<?xml version="1.0" encoding="utf-8"?>
<!-- Generator: Adobe Illustrator 16.0.0, SVG Export Plug-In . SVG Version: 6.00 Build 0)  -->
<!DOCTYPE svg PUBLIC "-//W3C//DTD SVG 1.1//EN" "http://www.w3.org/Graphics/SVG/1.1/DTD/svg11.dtd">
<svg version="1.1" id="Layer_1" xmlns="http://www.w3.org/2000/svg" xmlns:xlink="http://www.w3.org/1999/xlink" x="0px" y="0px"
	 width="793.328px" height="471.374px" viewBox="0 0 793.328 471.374" enable-background="new 0 0 793.328 471.374"
	 xml:space="preserve">
<path d="M793.328,179.861H625.63C600.548,76.658,507.588,0,396.659,0C285.738,0,192.769,76.658,167.695,179.861H0v91.133h163.623
	c17.032,113.414,114.878,200.38,233.036,200.38c118.167,0,216.001-86.966,233.034-200.38h163.635V179.861z M396.659,91.131
	c40.275,0,76.678,16.48,102.89,43.033l-102.89,56.976L293.78,134.175C319.99,107.611,356.392,91.131,396.659,91.131z
	 M396.659,380.243c-79.834,0-144.556-64.725-144.556-144.557c0-10.755,1.22-21.229,3.445-31.316l141.058,78.098l0.053-0.093
	l0.062,0.093l141.057-78.098c2.224,10.087,3.446,20.562,3.446,31.316C541.224,315.519,476.501,380.243,396.659,380.243z"/>
</svg>
