<?xml version="1.0" encoding="utf-8"?>
<!-- Generator: Adobe Illustrator 16.0.0, SVG Export Plug-In . SVG Version: 6.00 Build 0)  -->
<!DOCTYPE svg PUBLIC "-//W3C//DTD SVG 1.1//EN" "http://www.w3.org/Graphics/SVG/1.1/DTD/svg11.dtd">
<svg version="1.1" id="Layer_1" xmlns="http://www.w3.org/2000/svg" xmlns:xlink="http://www.w3.org/1999/xlink" x="0px" y="0px"
	 width="1108.29px" height="174.082px" viewBox="0 0 1108.29 174.082" enable-background="new 0 0 1108.29 174.082"
	 xml:space="preserve">
<g>
	<g>
		<path d="M332.823,120.434c-6.317-3.269-11.25-7.813-14.798-13.621c-3.552-5.808-5.326-12.395-5.326-19.775
			c0-7.374,1.774-13.968,5.326-19.776c3.548-5.808,8.48-10.343,14.798-13.622c6.317-3.27,13.436-4.905,21.365-4.905
			c7.836,0,14.682,1.635,20.54,4.905c5.851,3.279,10.116,7.953,12.792,14.038l-16.733,8.985
			c-3.875-6.818-9.452-10.227-16.733-10.227c-5.626,0-10.285,1.843-13.972,5.53c-3.687,3.687-5.53,8.708-5.53,15.071
			s1.843,11.392,5.53,15.072c3.687,3.693,8.346,5.537,13.972,5.537c7.374,0,12.951-3.409,16.733-10.235l16.733,9.124
			c-2.676,5.9-6.941,10.514-12.792,13.829c-5.858,3.325-12.703,4.983-20.54,4.983C346.259,125.348,339.14,123.713,332.823,120.434z"
			/>
		<path d="M413.309,120.434c-6.221-3.269-11.088-7.813-14.589-13.621c-3.506-5.808-5.253-12.395-5.253-19.775
			c0-7.374,1.747-13.968,5.253-19.776c3.501-5.808,8.369-10.343,14.589-13.622c6.224-3.27,13.254-4.905,21.091-4.905
			c7.835,0,14.844,1.635,21.021,4.905c6.174,3.279,11.014,7.813,14.52,13.622c3.502,5.808,5.257,12.402,5.257,19.776
			c0,7.381-1.754,13.968-5.257,19.775c-3.506,5.809-8.346,10.353-14.52,13.621c-6.177,3.279-13.186,4.914-21.021,4.914
			C426.563,125.348,419.532,123.713,413.309,120.434z M448.02,102.047c3.548-3.741,5.327-8.739,5.327-15.01
			s-1.778-11.269-5.327-15.001c-3.548-3.733-8.091-5.6-13.621-5.6c-5.53,0-10.097,1.866-13.69,5.6
			c-3.595,3.732-5.396,8.731-5.396,15.001s1.801,11.269,5.396,15.01c3.593,3.733,8.16,5.6,13.69,5.6
			C439.929,107.646,444.472,105.78,448.02,102.047z"/>
		<path d="M607.058,56.956c5.485,5.492,8.227,13.722,8.227,24.69v42.591h-21.573V84.962c0-5.901-1.223-10.305-3.664-13.205
			c-2.445-2.908-5.923-4.358-10.443-4.358c-5.071,0-9.079,1.636-12.028,4.914c-2.954,3.271-4.428,8.137-4.428,14.585v37.339h-21.572
			V84.962c0-11.708-4.701-17.563-14.107-17.563c-4.979,0-8.943,1.636-11.893,4.914c-2.95,3.271-4.423,8.137-4.423,14.585v37.339
			h-21.574v-74.4h20.605v8.577c2.766-3.139,6.155-5.538,10.166-7.196c4.012-1.659,8.412-2.484,13.206-2.484
			c5.256,0,10.003,1.034,14.246,3.108c4.239,2.075,7.652,5.098,10.232,9.055c3.042-3.873,6.891-6.864,11.55-8.986
			c4.655-2.121,9.75-3.178,15.278-3.178C594.173,48.734,601.57,51.472,607.058,56.956z"/>
		<path d="M752.128,56.956c5.483,5.492,8.225,13.722,8.225,24.69v42.591H738.78V84.962c0-5.901-1.222-10.305-3.663-13.205
			c-2.444-2.908-5.924-4.358-10.444-4.358c-5.071,0-9.077,1.636-12.027,4.914c-2.954,3.271-4.428,8.137-4.428,14.585v37.339h-21.574
			V84.962c0-11.708-4.7-17.563-14.105-17.563c-4.979,0-8.943,1.636-11.895,4.914c-2.949,3.271-4.423,8.137-4.423,14.585v37.339
			h-21.572v-74.4h20.604v8.577c2.766-3.139,6.155-5.538,10.166-7.196c4.011-1.659,8.41-2.484,13.204-2.484
			c5.257,0,10.004,1.034,14.246,3.108c4.237,2.075,7.65,5.098,10.231,9.055c3.042-3.873,6.892-6.864,11.55-8.986
			c4.654-2.121,9.749-3.178,15.279-3.178C739.243,48.734,746.64,51.472,752.128,56.956z"/>
		<path d="M780.819,36.008c-2.49-2.307-3.732-5.161-3.732-8.577c0-3.409,1.242-6.263,3.732-8.569
			c2.488-2.307,5.716-3.463,9.68-3.463c3.965,0,7.192,1.11,9.681,3.324c2.49,2.214,3.732,4.975,3.732,8.299
			c0,3.595-1.242,6.563-3.732,8.916c-2.488,2.353-5.716,3.525-9.681,3.525C786.535,39.463,783.308,38.314,780.819,36.008z
			 M779.712,49.837h21.574v74.4h-21.574V49.837z"/>
		<path d="M869.326,120.643c-2.12,1.565-4.724,2.745-7.813,3.525c-3.09,0.786-6.341,1.18-9.749,1.18
			c-8.851,0-15.697-2.261-20.537-6.779c-4.84-4.513-7.261-11.153-7.261-19.916V68.094h-11.478V51.496h11.478V33.378h21.572v18.118
			h18.535v16.598h-18.535v30.281c0,3.14,0.807,5.561,2.423,7.266c1.612,1.705,3.895,2.553,6.845,2.553
			c3.41,0,6.313-0.917,8.712-2.761L869.326,120.643z"/>
		<path d="M881.497,21.624h21.574v102.614h-21.574V21.624z"/>
		<path d="M924.227,36.008c-2.49-2.307-3.732-5.161-3.732-8.577c0-3.409,1.242-6.263,3.732-8.569
			c2.488-2.307,5.716-3.463,9.68-3.463c3.966,0,7.194,1.11,9.681,3.324c2.492,2.214,3.733,4.975,3.733,8.299
			c0,3.595-1.241,6.563-3.733,8.916c-2.486,2.353-5.715,3.525-9.681,3.525C929.942,39.463,926.715,38.314,924.227,36.008z
			 M923.121,49.837h21.572v74.4h-21.572V49.837z"/>
		<path d="M1032.302,57.025c5.674,5.538,8.508,13.745,8.508,24.621v42.591h-21.573V84.962c0-5.901-1.292-10.305-3.873-13.205
			c-2.583-2.908-6.316-4.358-11.202-4.358c-5.442,0-9.772,1.682-13,5.052c-3.228,3.363-4.84,8.361-4.84,15.001v36.784h-21.573v-74.4
			h20.604v8.715c2.858-3.139,6.406-5.553,10.648-7.265c4.237-1.705,8.896-2.553,13.968-2.553
			C1019.186,48.734,1026.633,51.496,1032.302,57.025z"/>
		<path d="M1108.29,120.643c-2.121,1.565-4.725,2.745-7.813,3.525c-3.089,0.786-6.342,1.18-9.75,1.18
			c-8.851,0-15.696-2.261-20.536-6.779c-4.84-4.513-7.262-11.153-7.262-19.916V68.094h-11.477V51.496h11.477V33.378h21.573v18.118
			h18.535v16.598h-18.535v30.281c0,3.14,0.806,5.561,2.423,7.266c1.61,1.705,3.895,2.553,6.845,2.553
			c3.409,0,6.313-0.917,8.711-2.761L1108.29,120.643z"/>
	</g>
	<path d="M292.982,66.424H231.05C221.787,28.311,187.456,0,146.489,0c-40.964,0-75.298,28.311-84.558,66.424H0v33.656h60.427
		c6.29,41.885,42.425,74.002,86.062,74.002c43.64,0,79.771-32.117,86.061-74.002h60.432V66.424z M146.489,33.655
		c14.874,0,28.318,6.086,37.998,15.893l-37.998,21.042l-37.994-21.038C118.175,39.742,131.618,33.655,146.489,33.655z
		 M146.489,140.427c-29.483,0-53.386-23.903-53.386-53.386c0-3.972,0.451-7.84,1.272-11.565l52.094,28.842l0.02-0.034l0.023,0.034
		l52.093-28.842c0.821,3.725,1.272,7.593,1.272,11.565C199.878,116.523,175.976,140.427,146.489,140.427z"/>
</g>
</svg>
