<?xml version="1.0" encoding="utf-8"?>
<!-- Generator: Adobe Illustrator 16.0.0, SVG Export Plug-In . SVG Version: 6.00 Build 0)  -->
<!DOCTYPE svg PUBLIC "-//W3C//DTD SVG 1.1//EN" "http://www.w3.org/Graphics/SVG/1.1/DTD/svg11.dtd">
<svg version="1.1" id="Layer_1" xmlns="http://www.w3.org/2000/svg" xmlns:xlink="http://www.w3.org/1999/xlink" x="0px" y="0px"
	 width="910.532px" height="459.103px" viewBox="0 0 910.532 459.103" enable-background="new 0 0 910.532 459.103"
	 xml:space="preserve">
<g>
	<g>
		<path d="M23.032,453.479c-7.23-3.741-12.875-8.94-16.937-15.589C2.031,431.243,0,423.705,0,415.257
			c0-8.437,2.031-15.985,6.095-22.632c4.061-6.646,9.706-11.838,16.937-15.589c7.229-3.743,15.376-5.613,24.451-5.613
			c8.968,0,16.803,1.87,23.507,5.613c6.696,3.751,11.577,9.101,14.64,16.065l-19.151,10.284
			c-4.435-7.803-10.816-11.705-19.151-11.705c-6.439,0-11.771,2.11-15.99,6.33c-4.22,4.219-6.329,9.965-6.329,17.246
			c0,7.283,2.109,13.038,6.329,17.251c4.219,4.227,9.551,6.337,15.99,6.337c8.44,0,14.822-3.901,19.151-11.714l19.151,10.442
			c-3.063,6.752-7.944,12.031-14.64,15.827c-6.704,3.806-14.539,5.702-23.507,5.702C38.408,459.103,30.261,457.231,23.032,453.479z"
			/>
		<path d="M115.145,453.479c-7.12-3.741-12.691-8.94-16.697-15.589c-4.013-6.646-6.012-14.185-6.012-22.633
			c0-8.437,1.999-15.985,6.012-22.632c4.006-6.646,9.577-11.838,16.697-15.589c7.122-3.743,15.168-5.613,24.138-5.613
			c8.967,0,16.988,1.87,24.058,5.613c7.066,3.751,12.605,8.942,16.618,15.589c4.008,6.646,6.016,14.195,6.016,22.632
			c0,8.448-2.008,15.986-6.016,22.633c-4.013,6.648-9.552,11.848-16.618,15.589c-7.069,3.753-15.09,5.624-24.058,5.624
			C130.313,459.103,122.267,457.231,115.145,453.479z M154.871,432.437c4.061-4.282,6.096-10.002,6.096-17.18
			c0-7.176-2.035-12.896-6.096-17.168c-4.061-4.272-9.26-6.408-15.588-6.408c-6.329,0-11.556,2.136-15.668,6.408
			c-4.114,4.271-6.176,9.992-6.176,17.168c0,7.178,2.062,12.897,6.176,17.18c4.112,4.271,9.339,6.408,15.668,6.408
			C145.611,438.845,150.811,436.708,154.871,432.437z"/>
		<path d="M336.885,380.831c6.277,6.286,9.415,15.703,9.415,28.258v48.744h-24.69v-44.948c0-6.754-1.399-11.794-4.194-15.112
			c-2.798-3.33-6.778-4.989-11.952-4.989c-5.804,0-10.391,1.872-13.766,5.624c-3.38,3.742-5.067,9.312-5.067,16.691v42.734h-24.689
			v-44.948c0-13.4-5.38-20.102-16.145-20.102c-5.699,0-10.235,1.872-13.611,5.624c-3.377,3.742-5.063,9.312-5.063,16.691v42.734
			h-24.69v-85.147h23.581v9.813c3.166-3.591,7.045-6.338,11.634-8.234c4.592-1.899,9.627-2.842,15.114-2.842
			c6.016,0,11.449,1.181,16.304,3.557c4.851,2.375,8.757,5.833,11.71,10.364c3.481-4.434,7.886-7.858,13.218-10.286
			c5.328-2.427,11.159-3.635,17.485-3.635C322.139,371.423,330.604,374.556,336.885,380.831z"/>
		<path d="M502.914,380.831c6.275,6.286,9.412,15.703,9.412,28.258v48.744h-24.688v-44.948c0-6.754-1.398-11.794-4.192-15.112
			c-2.797-3.33-6.78-4.989-11.954-4.989c-5.804,0-10.389,1.872-13.765,5.624c-3.381,3.742-5.068,9.312-5.068,16.691v42.734h-24.691
			v-44.948c0-13.4-5.379-20.102-16.144-20.102c-5.697,0-10.235,1.872-13.613,5.624c-3.375,3.742-5.062,9.312-5.062,16.691v42.734
			h-24.688v-85.147h23.581v9.813c3.165-3.591,7.044-6.338,11.635-8.234c4.59-1.899,9.625-2.842,15.112-2.842
			c6.017,0,11.449,1.181,16.304,3.557c4.85,2.375,8.756,5.833,11.71,10.364c3.48-4.434,7.886-7.858,13.218-10.286
			c5.327-2.427,11.157-3.635,17.487-3.635C488.167,371.423,496.632,374.556,502.914,380.831z"/>
		<path d="M535.75,356.856c-2.85-2.641-4.271-5.906-4.271-9.814c0-3.904,1.421-7.169,4.271-9.809
			c2.848-2.641,6.542-3.963,11.079-3.963c4.537,0,8.231,1.271,11.079,3.805c2.85,2.534,4.272,5.693,4.272,9.497
			c0,4.114-1.422,7.513-4.272,10.206c-2.848,2.69-6.542,4.031-11.079,4.031C542.292,360.81,538.598,359.496,535.75,356.856z
			 M534.483,372.686h24.691v85.147h-24.691V372.686z"/>
		<path d="M637.044,453.719c-2.426,1.791-5.407,3.143-8.942,4.034c-3.536,0.9-7.256,1.35-11.157,1.35
			c-10.129,0-17.965-2.587-23.505-7.758c-5.539-5.164-8.309-12.764-8.309-22.794v-34.973h-13.136v-18.995h13.136v-20.736h24.689
			v20.736h21.213v18.995H609.82v34.655c0,3.594,0.922,6.364,2.773,8.315c1.845,1.952,4.457,2.922,7.833,2.922
			c3.903,0,7.225-1.05,9.971-3.159L637.044,453.719z"/>
		<path d="M650.973,340.394h24.691v117.439h-24.691V340.394z"/>
		<path d="M699.875,356.856c-2.85-2.641-4.271-5.906-4.271-9.814c0-3.904,1.421-7.169,4.271-9.809
			c2.848-2.641,6.542-3.963,11.078-3.963c4.54,0,8.234,1.271,11.08,3.805c2.852,2.534,4.273,5.693,4.273,9.497
			c0,4.114-1.421,7.513-4.273,10.206c-2.846,2.69-6.54,4.031-11.08,4.031C706.417,360.81,702.723,359.496,699.875,356.856z
			 M698.61,372.686h24.689v85.147H698.61V372.686z"/>
		<path d="M823.564,380.91c6.494,6.338,9.738,15.73,9.738,28.179v48.744h-24.69v-44.948c0-6.754-1.479-11.794-4.433-15.112
			c-2.956-3.33-7.229-4.989-12.82-4.989c-6.229,0-11.185,1.925-14.878,5.782c-3.693,3.848-5.54,9.568-5.54,17.169v42.099h-24.689
			v-85.147h23.581v9.972c3.271-3.591,7.332-6.354,12.187-8.314c4.849-1.95,10.182-2.92,15.985-2.92
			C808.553,371.423,817.077,374.583,823.564,380.91z"/>
		<path d="M910.532,453.719c-2.428,1.791-5.407,3.143-8.942,4.034c-3.535,0.9-7.257,1.35-11.158,1.35
			c-10.129,0-17.964-2.587-23.503-7.758c-5.539-5.164-8.311-12.764-8.311-22.794v-34.973h-13.135v-18.995h13.135v-20.736h24.69
			v20.736h21.213v18.995h-21.213v34.655c0,3.594,0.922,6.364,2.772,8.315c1.844,1.952,4.457,2.922,7.834,2.922
			c3.9,0,7.225-1.05,9.969-3.159L910.532,453.719z"/>
	</g>
	<path d="M710.587,115.772H602.645C586.5,49.343,526.665,0,455.263,0c-71.396,0-131.238,49.343-147.377,115.772H199.945v58.658
		h105.319c10.963,73.002,73.944,128.979,149.999,128.979c76.061,0,139.034-55.977,149.997-128.979h105.327V115.772z M455.263,58.658
		c25.924,0,49.356,10.608,66.228,27.699l-66.228,36.673l-66.22-36.666C405.913,69.267,429.344,58.658,455.263,58.658z
		 M455.263,244.752c-51.387,0-93.046-41.662-93.046-93.047c0-6.923,0.786-13.666,2.218-20.158l90.795,50.27l0.034-0.06l0.04,0.06
		l90.794-50.27c1.432,6.492,2.218,13.235,2.218,20.158C548.314,203.09,506.655,244.752,455.263,244.752z"/>
</g>
</svg>
